<svg width="96" height="108" viewBox="0 0 96 108" fill="none" xmlns="http://www.w3.org/2000/svg">
<path d="M1.1735 41.2487C0.552994 40.7979 0.175373 40.2334 0.0406351 39.5554C-0.0941027 38.8774 0.106232 38.1796 0.641638 37.4619C6.13753 29.7982 13.0304 23.8476 21.3204 19.61C29.6103 15.3725 38.4516 13.2537 47.8442 13.2537C57.2404 13.2537 66.1047 15.3057 74.4372 19.4099C82.7697 23.514 89.7282 29.4412 95.3127 37.1914C95.9332 38.0029 96.1336 38.7242 95.9137 39.3553C95.6939 39.9864 95.3163 40.5274 94.7809 40.9782C94.249 41.429 93.6285 41.6327 92.9194 41.5895C92.2102 41.5462 91.5897 41.1621 91.0578 40.4372C86.1825 33.4047 79.9118 28.0184 72.246 24.2786C64.5801 20.5387 56.4462 18.6669 47.8442 18.6633C39.2458 18.6633 31.1793 20.5351 23.6446 24.2786C16.1099 28.022 9.86055 33.4083 4.89652 40.4372C4.36466 41.2487 3.74415 41.6995 3.03501 41.7896C2.32586 41.8798 1.70536 41.6995 1.1735 41.2487ZM62.8693 107.923C53.6504 105.579 46.1157 100.912 40.2652 93.9225C34.4148 86.9332 31.4895 78.3914 31.4895 68.297C31.4895 63.7889 33.0851 60.0021 36.2763 56.9367C39.4674 53.8712 43.3234 52.3385 47.8442 52.3385C52.365 52.3385 56.221 53.8712 59.4122 56.9367C62.6033 60.0021 64.1989 63.7889 64.1989 68.297C64.1989 71.2723 65.307 73.7751 67.523 75.8056C69.7391 77.836 72.3541 78.8494 75.368 78.8458C78.3819 78.8458 80.9525 77.8306 83.0799 75.8002C85.2074 73.7697 86.2711 71.2687 86.2711 68.297C86.2711 57.8383 82.5038 49.0476 74.9691 41.9249C67.4344 34.8021 58.4371 31.2408 47.9772 31.2408C37.5173 31.2408 28.52 34.8021 20.9853 41.9249C13.4506 49.0476 9.68326 57.7932 9.68326 68.1617C9.68326 70.3256 9.88359 73.0304 10.2843 76.2762C10.6849 79.522 11.637 83.3088 13.1403 87.6365C13.4063 88.448 13.385 89.1692 13.0765 89.8004C12.768 90.4315 12.2575 90.8823 11.5448 91.1528C10.8356 91.4233 10.1477 91.3998 9.48115 91.0825C8.81455 90.7651 8.35006 90.2476 8.08768 89.5299C6.75803 86.0136 5.806 82.519 5.23159 79.046C4.65718 75.573 4.3682 71.99 4.36466 68.297C4.36466 56.3055 8.64259 46.2526 17.1984 38.1381C25.7543 30.0236 35.9696 25.9664 47.8442 25.9664C59.8111 25.9664 70.0937 30.0236 78.6921 38.1381C87.2905 46.2526 91.5897 56.3055 91.5897 68.297C91.5897 72.805 90.0172 76.5683 86.8721 79.5869C83.727 82.6055 79.8923 84.1166 75.368 84.1202C70.8472 84.1202 66.9681 82.6091 63.7309 79.5869C60.4936 76.5647 58.8768 72.8014 58.8803 68.297C58.8803 65.3216 57.7953 62.8188 55.6253 60.7884C53.4553 58.7579 50.8616 57.7445 47.8442 57.7481C44.8303 57.7481 42.2366 58.7633 40.0631 60.7938C37.8896 62.8242 36.8046 65.3253 36.8081 68.297C36.8081 77.0426 39.3575 84.3456 44.4563 90.2061C49.555 96.0666 56.1359 100.169 64.1989 102.513C64.9967 102.784 65.5286 103.234 65.7945 103.865C66.0604 104.497 66.1047 105.173 65.9275 105.894C65.7502 106.525 65.3956 107.066 64.8637 107.517C64.3319 107.968 63.6671 108.103 62.8693 107.923ZM18.4589 12.9832C17.7498 13.434 17.0407 13.5476 16.3315 13.324C15.6224 13.1004 15.0905 12.6261 14.7359 11.9013C14.3814 11.18 14.2927 10.5272 14.47 9.94295C14.6473 9.35871 15.0905 8.83938 15.7996 8.38497C20.7637 5.68014 25.9493 3.60644 31.3566 2.16386C36.7638 0.721287 42.2597 0 47.8442 0C53.5174 0 59.0576 0.699649 64.4648 2.09895C69.8721 3.49825 75.102 5.50343 80.1547 8.11449C80.9525 8.5653 81.4188 9.10626 81.5535 9.73739C81.6883 10.3685 81.6209 10.9996 81.3514 11.6308C81.0855 12.2619 80.6423 12.7578 80.0218 13.1184C79.4013 13.4791 78.6478 13.434 77.7613 12.9832C73.0632 10.5488 68.2091 8.6771 63.199 7.36796C58.1889 6.05882 53.0706 5.40605 47.8442 5.40966C42.7029 5.40966 37.6502 6.01915 32.6862 7.23812C27.7222 8.4571 22.9798 10.3721 18.4589 12.9832ZM34.1488 106.029C28.9189 100.439 24.9069 94.7358 22.1128 88.9186C19.3188 83.1014 17.9235 76.2275 17.9271 68.297C17.9271 60.0923 20.8523 53.1716 26.7028 47.5347C32.5532 41.8978 39.6004 39.0812 47.8442 39.0848C56.088 39.0848 63.1795 41.9032 69.1186 47.5401C75.0577 53.177 78.0273 60.0959 78.0273 68.297C78.0273 69.1084 77.7826 69.763 77.2933 70.2607C76.804 70.7584 76.1622 71.0054 75.368 71.0018C74.6588 71.0018 74.0383 70.7529 73.5065 70.2553C72.9746 69.7576 72.7087 69.1048 72.7087 68.297C72.7087 61.5349 70.2479 55.8764 65.3265 51.3214C60.405 46.7665 54.5776 44.4909 47.8442 44.4945C41.1073 44.4945 35.3225 46.7719 30.4896 51.3269C25.6568 55.8818 23.2421 61.5385 23.2457 68.297C23.2457 75.6 24.4867 81.7995 26.9687 86.8954C29.4507 91.9913 33.0851 97.107 37.8718 102.243C38.4037 102.784 38.6696 103.415 38.6696 104.136C38.6696 104.857 38.4037 105.488 37.8718 106.029C37.34 106.57 36.7195 106.841 36.0103 106.841C35.3012 106.841 34.6807 106.57 34.1488 106.029ZM74.3043 96.8329C66.415 96.8329 59.5664 94.1281 53.7585 88.7184C47.9506 83.3088 45.0484 76.5016 45.052 68.297C45.052 67.5757 45.2966 66.9445 45.7859 66.4036C46.2752 65.8626 46.917 65.5921 47.7113 65.5921C48.509 65.5921 49.1526 65.8626 49.6419 66.4036C50.1312 66.9445 50.3741 67.5757 50.3706 68.297C50.3706 75.059 52.7639 80.6039 57.5507 84.9317C62.3374 89.2594 67.9219 91.4233 74.3043 91.4233C74.8361 91.4233 75.5896 91.3782 76.5647 91.288C77.5397 91.1979 78.5591 91.0626 79.6229 90.8823C80.4206 90.702 81.1085 90.8156 81.6865 91.2231C82.2644 91.6306 82.6403 92.2383 82.814 93.0462C82.9913 93.7675 82.8583 94.3986 82.4151 94.9395C81.9719 95.4805 81.3957 95.8411 80.6866 96.0215C79.091 96.4723 77.6958 96.7211 76.5008 96.768C75.3059 96.8149 74.5737 96.8365 74.3043 96.8329Z" fill="white"/>
</svg>
