<svg width="1231" height="160" viewBox="0 0 1231 160" fill="none" xmlns="http://www.w3.org/2000/svg">
<path d="M239.929 61.8267C239.588 58.3892 238.125 55.7187 235.54 53.8153C232.955 51.9119 229.446 50.9602 225.014 50.9602C222.003 50.9602 219.46 51.3864 217.386 52.2386C215.313 53.0625 213.722 54.2131 212.614 55.6903C211.534 57.1676 210.994 58.8438 210.994 60.7188C210.938 62.2812 211.264 63.6449 211.974 64.8097C212.713 65.9744 213.722 66.983 215 67.8352C216.278 68.6591 217.756 69.3835 219.432 70.0085C221.108 70.6051 222.898 71.1165 224.801 71.5426L232.642 73.4176C236.449 74.2699 239.943 75.4062 243.125 76.8267C246.307 78.2472 249.063 79.9943 251.392 82.0682C253.722 84.142 255.526 86.5852 256.804 89.3977C258.111 92.2102 258.778 95.4347 258.807 99.071C258.778 104.412 257.415 109.043 254.716 112.963C252.045 116.855 248.182 119.881 243.125 122.04C238.097 124.17 232.031 125.236 224.929 125.236C217.884 125.236 211.747 124.156 206.52 121.997C201.321 119.838 197.259 116.642 194.332 112.409C191.435 108.148 189.915 102.878 189.773 96.5994H207.628C207.827 99.5256 208.665 101.969 210.142 103.929C211.648 105.861 213.651 107.324 216.151 108.318C218.679 109.284 221.534 109.767 224.716 109.767C227.841 109.767 230.554 109.312 232.855 108.403C235.185 107.494 236.989 106.23 238.267 104.611C239.545 102.991 240.185 101.131 240.185 99.0284C240.185 97.0682 239.602 95.4205 238.438 94.0852C237.301 92.75 235.625 91.6136 233.409 90.6761C231.222 89.7386 228.537 88.8864 225.355 88.1193L215.852 85.733C208.494 83.9432 202.685 81.1449 198.423 77.3381C194.162 73.5312 192.045 68.4034 192.074 61.9545C192.045 56.6705 193.452 52.054 196.293 48.1051C199.162 44.1562 203.097 41.0739 208.097 38.858C213.097 36.642 218.778 35.5341 225.142 35.5341C231.619 35.5341 237.273 36.642 242.102 38.858C246.96 41.0739 250.739 44.1562 253.438 48.1051C256.136 52.054 257.528 56.6278 257.614 61.8267H239.929ZM289.542 125.236C285.366 125.236 281.644 124.511 278.377 123.062C275.11 121.585 272.525 119.412 270.621 116.543C268.746 113.645 267.809 110.037 267.809 105.719C267.809 102.082 268.477 99.0284 269.812 96.5568C271.147 94.0852 272.965 92.0966 275.266 90.5909C277.567 89.0852 280.181 87.9489 283.107 87.1818C286.062 86.4148 289.158 85.875 292.397 85.5625C296.204 85.1648 299.272 84.7955 301.602 84.4545C303.931 84.0852 305.621 83.5455 306.673 82.8352C307.724 82.125 308.249 81.0739 308.249 79.6818V79.4261C308.249 76.7273 307.397 74.6392 305.692 73.1619C304.016 71.6847 301.63 70.946 298.533 70.946C295.266 70.946 292.667 71.6705 290.735 73.1193C288.803 74.5398 287.525 76.3295 286.9 78.4886L270.11 77.125C270.962 73.1477 272.638 69.7102 275.138 66.8125C277.638 63.8864 280.863 61.642 284.812 60.0795C288.789 58.4886 293.391 57.6932 298.619 57.6932C302.255 57.6932 305.735 58.1193 309.059 58.9716C312.411 59.8239 315.38 61.1449 317.965 62.9347C320.579 64.7244 322.638 67.0256 324.144 69.8381C325.65 72.6222 326.403 75.9602 326.403 79.8523V124H309.187V114.923H308.675C307.624 116.969 306.218 118.773 304.457 120.335C302.695 121.869 300.579 123.077 298.107 123.957C295.636 124.81 292.781 125.236 289.542 125.236ZM294.741 112.707C297.411 112.707 299.769 112.182 301.815 111.131C303.86 110.051 305.465 108.602 306.63 106.784C307.795 104.966 308.377 102.906 308.377 100.605V93.6591C307.809 94.0284 307.028 94.3693 306.033 94.6818C305.067 94.9659 303.974 95.2358 302.752 95.4915C301.531 95.7187 300.309 95.9318 299.087 96.1307C297.866 96.3011 296.758 96.4574 295.763 96.5994C293.633 96.9119 291.772 97.4091 290.181 98.0909C288.59 98.7727 287.354 99.696 286.474 100.861C285.593 101.997 285.153 103.418 285.153 105.122C285.153 107.594 286.048 109.483 287.837 110.79C289.656 112.068 291.957 112.707 294.741 112.707ZM375.685 58.5455V72.1818H335.288V58.5455H375.685ZM344.535 124V53.8153C344.535 49.071 345.458 45.1364 347.305 42.0114C349.18 38.8864 351.737 36.5426 354.975 34.9801C358.214 33.4176 361.893 32.6364 366.012 32.6364C368.796 32.6364 371.339 32.8494 373.64 33.2756C375.969 33.7017 377.702 34.0852 378.839 34.4261L375.6 48.0625C374.89 47.8352 374.009 47.6222 372.958 47.4233C371.935 47.2244 370.884 47.125 369.805 47.125C367.134 47.125 365.273 47.75 364.222 49C363.171 50.2216 362.646 51.9403 362.646 54.1562V124H344.535ZM414.261 125.278C407.528 125.278 401.733 123.915 396.875 121.188C392.045 118.432 388.324 114.54 385.71 109.511C383.097 104.455 381.79 98.4744 381.79 91.571C381.79 84.8381 383.097 78.929 385.71 73.8438C388.324 68.7585 392.003 64.7955 396.747 61.9545C401.52 59.1136 407.116 57.6932 413.537 57.6932C417.855 57.6932 421.875 58.3892 425.597 59.7812C429.347 61.1449 432.614 63.2045 435.398 65.9602C438.21 68.7159 440.398 72.1818 441.96 76.358C443.523 80.5057 444.304 85.3636 444.304 90.9318V95.9176H389.034V84.6676H427.216C427.216 82.054 426.648 79.7386 425.511 77.7216C424.375 75.7045 422.798 74.1278 420.781 72.9915C418.793 71.8267 416.477 71.2443 413.835 71.2443C411.08 71.2443 408.636 71.8835 406.506 73.1619C404.403 74.4119 402.756 76.1023 401.562 78.233C400.369 80.3352 399.759 82.679 399.73 85.2642V95.9602C399.73 99.1989 400.327 101.997 401.52 104.355C402.741 106.713 404.46 108.531 406.676 109.81C408.892 111.088 411.52 111.727 414.56 111.727C416.577 111.727 418.423 111.443 420.099 110.875C421.776 110.307 423.21 109.455 424.403 108.318C425.597 107.182 426.506 105.79 427.131 104.142L443.92 105.25C443.068 109.284 441.321 112.807 438.679 115.818C436.065 118.801 432.685 121.131 428.537 122.807C424.418 124.455 419.659 125.278 414.261 125.278Z" fill="#8BCC58"/>
<path d="M480.387 80.7472V72.1818C485.302 72.1818 488.711 71.2017 490.614 69.2415C492.518 67.2812 493.469 64.1136 493.469 59.7386V50.321C493.469 45.0653 494.194 40.8608 495.643 37.7074C497.12 34.5256 499.165 32.125 501.779 30.5057C504.421 28.8864 507.546 27.8068 511.154 27.267C514.762 26.7273 518.711 26.4574 523.001 26.4574V40.0085C519.648 40.0085 517.092 40.4489 515.33 41.3295C513.597 42.1818 512.418 43.517 511.793 45.3352C511.168 47.125 510.856 49.3977 510.856 52.1534V64.5966C510.856 66.7557 510.458 68.8153 509.663 70.7756C508.867 72.7074 507.39 74.4261 505.231 75.9318C503.072 77.4091 499.989 78.5881 495.984 79.4688C491.978 80.321 486.779 80.7472 480.387 80.7472ZM523.001 134.312C518.711 134.312 514.762 134.043 511.154 133.503C507.546 132.963 504.421 131.884 501.779 130.264C499.165 128.645 497.12 126.259 495.643 123.105C494.194 119.923 493.469 115.705 493.469 110.449V100.989C493.469 96.6136 492.518 93.446 490.614 91.4858C488.711 89.5256 485.302 88.5455 480.387 88.5455V79.9801C486.779 79.9801 491.978 80.4205 495.984 81.3011C499.989 82.1534 503.072 83.3324 505.231 84.8381C507.39 86.3153 508.867 88.0341 509.663 89.9943C510.458 91.9261 510.856 93.9858 510.856 96.1733V108.616C510.856 111.344 511.168 113.616 511.793 115.435C512.418 117.224 513.597 118.56 515.33 119.44C517.092 120.293 519.648 120.719 523.001 120.719V134.312ZM480.387 88.5455V72.1818H495.685V88.5455H480.387ZM533.366 124V36.7273H567.798C574.418 36.7273 580.057 37.9915 584.716 40.5199C589.375 43.0199 592.926 46.5 595.369 50.9602C597.841 55.392 599.077 60.5057 599.077 66.3011C599.077 72.0966 597.827 77.2102 595.327 81.642C592.827 86.0739 589.205 89.5256 584.46 91.9972C579.744 94.4687 574.034 95.7045 567.33 95.7045H545.384V80.9176H564.347C567.898 80.9176 570.824 80.3068 573.125 79.0852C575.455 77.8352 577.188 76.1165 578.324 73.929C579.489 71.7131 580.071 69.1705 580.071 66.3011C580.071 63.4034 579.489 60.875 578.324 58.7159C577.188 56.5284 575.455 54.8381 573.125 53.6449C570.795 52.4233 567.841 51.8125 564.261 51.8125H551.818V124H533.366ZM627.628 125.236C623.452 125.236 619.73 124.511 616.463 123.062C613.196 121.585 610.611 119.412 608.707 116.543C606.832 113.645 605.895 110.037 605.895 105.719C605.895 102.082 606.563 99.0284 607.898 96.5568C609.233 94.0852 611.051 92.0966 613.352 90.5909C615.653 89.0852 618.267 87.9489 621.193 87.1818C624.148 86.4148 627.244 85.875 630.483 85.5625C634.29 85.1648 637.358 84.7955 639.688 84.4545C642.017 84.0852 643.707 83.5455 644.759 82.8352C645.81 82.125 646.335 81.0739 646.335 79.6818V79.4261C646.335 76.7273 645.483 74.6392 643.778 73.1619C642.102 71.6847 639.716 70.946 636.619 70.946C633.352 70.946 630.753 71.6705 628.821 73.1193C626.889 74.5398 625.611 76.3295 624.986 78.4886L608.196 77.125C609.048 73.1477 610.724 69.7102 613.224 66.8125C615.724 63.8864 618.949 61.642 622.898 60.0795C626.875 58.4886 631.477 57.6932 636.705 57.6932C640.341 57.6932 643.821 58.1193 647.145 58.9716C650.497 59.8239 653.466 61.1449 656.051 62.9347C658.665 64.7244 660.724 67.0256 662.23 69.8381C663.736 72.6222 664.489 75.9602 664.489 79.8523V124H647.273V114.923H646.761C645.71 116.969 644.304 118.773 642.543 120.335C640.781 121.869 638.665 123.077 636.193 123.957C633.722 124.81 630.866 125.236 627.628 125.236ZM632.827 112.707C635.497 112.707 637.855 112.182 639.901 111.131C641.946 110.051 643.551 108.602 644.716 106.784C645.881 104.966 646.463 102.906 646.463 100.605V93.6591C645.895 94.0284 645.114 94.3693 644.119 94.6818C643.153 94.9659 642.06 95.2358 640.838 95.4915C639.616 95.7187 638.395 95.9318 637.173 96.1307C635.952 96.3011 634.844 96.4574 633.849 96.5994C631.719 96.9119 629.858 97.4091 628.267 98.0909C626.676 98.7727 625.44 99.696 624.56 100.861C623.679 101.997 623.239 103.418 623.239 105.122C623.239 107.594 624.134 109.483 625.923 110.79C627.741 112.068 630.043 112.707 632.827 112.707ZM733.033 77.2102L716.413 78.233C716.129 76.8125 715.518 75.5341 714.581 74.3977C713.643 73.233 712.408 72.3097 710.874 71.6278C709.368 70.9176 707.564 70.5625 705.462 70.5625C702.649 70.5625 700.277 71.1591 698.345 72.3523C696.413 73.517 695.447 75.0795 695.447 77.0398C695.447 78.6023 696.072 79.9233 697.322 81.0028C698.572 82.0824 700.717 82.9489 703.757 83.6023L715.604 85.9886C721.967 87.2955 726.712 89.3977 729.837 92.2955C732.962 95.1932 734.524 99 734.524 103.716C734.524 108.006 733.26 111.77 730.732 115.009C728.232 118.247 724.794 120.776 720.419 122.594C716.072 124.384 711.058 125.278 705.376 125.278C696.712 125.278 689.808 123.474 684.666 119.866C679.553 116.23 676.555 111.287 675.675 105.037L693.53 104.099C694.07 106.741 695.376 108.759 697.45 110.151C699.524 111.514 702.18 112.196 705.419 112.196C708.601 112.196 711.158 111.585 713.089 110.364C715.05 109.114 716.044 107.509 716.072 105.548C716.044 103.901 715.348 102.551 713.984 101.5C712.621 100.42 710.518 99.5966 707.678 99.0284L696.342 96.7699C689.95 95.4915 685.192 93.2756 682.067 90.1222C678.97 86.9687 677.422 82.9489 677.422 78.0625C677.422 73.858 678.558 70.2358 680.831 67.196C683.132 64.1562 686.357 61.8125 690.504 60.1648C694.68 58.517 699.567 57.6932 705.163 57.6932C713.43 57.6932 719.936 59.4403 724.68 62.9347C729.453 66.429 732.237 71.1875 733.033 77.2102ZM800.415 77.2102L783.796 78.233C783.512 76.8125 782.901 75.5341 781.964 74.3977C781.026 73.233 779.79 72.3097 778.256 71.6278C776.751 70.9176 774.947 70.5625 772.844 70.5625C770.032 70.5625 767.66 71.1591 765.728 72.3523C763.796 73.517 762.83 75.0795 762.83 77.0398C762.83 78.6023 763.455 79.9233 764.705 81.0028C765.955 82.0824 768.1 82.9489 771.14 83.6023L782.987 85.9886C789.35 87.2955 794.094 89.3977 797.219 92.2955C800.344 95.1932 801.907 99 801.907 103.716C801.907 108.006 800.643 111.77 798.114 115.009C795.614 118.247 792.177 120.776 787.802 122.594C783.455 124.384 778.441 125.278 772.759 125.278C764.094 125.278 757.191 123.474 752.049 119.866C746.935 116.23 743.938 111.287 743.058 105.037L760.913 104.099C761.452 106.741 762.759 108.759 764.833 110.151C766.907 111.514 769.563 112.196 772.802 112.196C775.984 112.196 778.54 111.585 780.472 110.364C782.433 109.114 783.427 107.509 783.455 105.548C783.427 103.901 782.731 102.551 781.367 101.5C780.004 100.42 777.901 99.5966 775.06 99.0284L763.725 96.7699C757.333 95.4915 752.575 93.2756 749.45 90.1222C746.353 86.9687 744.805 82.9489 744.805 78.0625C744.805 73.858 745.941 70.2358 748.214 67.196C750.515 64.1562 753.739 61.8125 757.887 60.1648C762.063 58.517 766.95 57.6932 772.546 57.6932C780.813 57.6932 787.319 59.4403 792.063 62.9347C796.836 66.429 799.62 71.1875 800.415 77.2102ZM813.679 124V36.7273H832.131V75.2074H833.281L864.688 36.7273H886.804L854.418 75.804L887.188 124H865.114L841.207 88.1193L832.131 99.1989V124H813.679ZM921.097 125.278C914.364 125.278 908.569 123.915 903.711 121.188C898.881 118.432 895.16 114.54 892.546 109.511C889.933 104.455 888.626 98.4744 888.626 91.571C888.626 84.8381 889.933 78.929 892.546 73.8438C895.16 68.7585 898.839 64.7955 903.583 61.9545C908.356 59.1136 913.952 57.6932 920.373 57.6932C924.691 57.6932 928.711 58.3892 932.433 59.7812C936.183 61.1449 939.45 63.2045 942.234 65.9602C945.046 68.7159 947.234 72.1818 948.796 76.358C950.359 80.5057 951.14 85.3636 951.14 90.9318V95.9176H895.87V84.6676H934.052C934.052 82.054 933.484 79.7386 932.347 77.7216C931.211 75.7045 929.634 74.1278 927.617 72.9915C925.629 71.8267 923.313 71.2443 920.671 71.2443C917.915 71.2443 915.472 71.8835 913.342 73.1619C911.239 74.4119 909.592 76.1023 908.398 78.233C907.205 80.3352 906.594 82.679 906.566 85.2642V95.9602C906.566 99.1989 907.163 101.997 908.356 104.355C909.577 106.713 911.296 108.531 913.512 109.81C915.728 111.088 918.356 111.727 921.396 111.727C923.413 111.727 925.259 111.443 926.935 110.875C928.612 110.307 930.046 109.455 931.239 108.318C932.433 107.182 933.342 105.79 933.967 104.142L950.756 105.25C949.904 109.284 948.157 112.807 945.515 115.818C942.901 118.801 939.521 121.131 935.373 122.807C931.254 124.455 926.495 125.278 921.097 125.278ZM972.436 148.545C970.135 148.545 967.976 148.361 965.959 147.991C963.97 147.651 962.322 147.21 961.016 146.67L965.107 133.119C967.237 133.773 969.155 134.128 970.859 134.185C972.592 134.241 974.084 133.844 975.334 132.991C976.612 132.139 977.649 130.69 978.445 128.645L979.51 125.875L956.03 58.5455H975.121L988.672 106.614H989.354L1003.03 58.5455H1022.25L996.811 131.074C995.589 134.597 993.928 137.665 991.825 140.278C989.751 142.92 987.124 144.952 983.942 146.372C980.76 147.821 976.925 148.545 972.436 148.545ZM1069.68 88.6307V97.196C1064.79 97.196 1061.38 98.1761 1059.45 100.136C1057.55 102.097 1056.6 105.264 1056.6 109.639V119.099C1056.6 124.355 1055.86 128.56 1054.38 131.713C1052.93 134.895 1050.89 137.295 1048.25 138.915C1045.63 140.534 1042.52 141.614 1038.91 142.153C1035.33 142.693 1031.38 142.963 1027.07 142.963V129.369C1030.42 129.369 1032.96 128.929 1034.69 128.048C1036.46 127.196 1037.65 125.861 1038.27 124.043C1038.9 122.253 1039.21 119.994 1039.21 117.267V104.824C1039.21 102.636 1039.61 100.577 1040.4 98.6449C1041.2 96.6847 1042.68 94.9659 1044.84 93.4886C1047 91.983 1050.08 90.804 1054.08 89.9517C1058.09 89.071 1063.29 88.6307 1069.68 88.6307ZM1027.07 35.108C1031.38 35.108 1035.33 35.3778 1038.91 35.9176C1042.52 36.4574 1045.63 37.5369 1048.25 39.1562C1050.89 40.7756 1052.93 43.1761 1054.38 46.358C1055.86 49.5114 1056.6 53.7159 1056.6 58.9716V68.3892C1056.6 72.7642 1057.55 75.9318 1059.45 77.892C1061.38 79.8523 1064.79 80.8324 1069.68 80.8324V89.3977C1063.29 89.3977 1058.09 88.9716 1054.08 88.1193C1050.08 87.2386 1047 86.0597 1044.84 84.5824C1042.68 83.0767 1041.2 81.358 1040.4 79.4261C1039.61 77.4659 1039.21 75.4062 1039.21 73.2472V60.804C1039.21 58.0483 1038.9 55.7756 1038.27 53.9858C1037.65 52.1676 1036.46 50.8324 1034.69 49.9801C1032.96 49.0994 1030.42 48.6591 1027.07 48.6591V35.108ZM1069.68 80.8324V97.196H1054.38V80.8324H1069.68Z" fill="#FFF8F8"/>
<path d="M123.409 0H43.4092C21.3178 0 3.40918 17.9086 3.40918 40.0001V120C3.40918 142.092 21.3178 160 43.4092 160H123.409C145.501 160 163.409 142.092 163.409 120V40.0001C163.409 17.9086 145.501 0 123.409 0Z" fill="white"/>
<g filter="url(#filter0_d_5783_1413)">
<rect x="12.4844" y="90.4512" width="47.4728" height="30.1819" transform="rotate(-37.6696 12.4844 90.4512)" fill="#B6E7A4"/>
<path d="M126.089 39.9249L114.774 49.4503L69.4206 86.0156L59.2583 72.8263L50.2763 60.7025L27.2731 79.2482L36.2551 91.372L54.9675 116.63L63.5176 128.698L75.2639 119.228L132.364 73.1926L144.11 63.7224L126.089 39.9249Z" fill="white"/>
</g>
<path d="M123.405 0H43.4053C21.3139 0 3.40527 17.9086 3.40527 40.0001V120C3.40527 142.092 21.3139 160 43.4053 160H123.405C145.497 160 163.405 142.092 163.405 120V40.0001C163.405 17.9086 145.497 0 123.405 0Z" fill="white"/>
<g filter="url(#filter1_d_5783_1413)">
<rect x="4.35449" y="80.0176" width="57.0217" height="30.1819" transform="rotate(-38.2037 4.35449 80.0176)" fill="#645D5D"/>
<path d="M143.197 47.6041L131.883 57.1295L86.529 93.6948L76.3667 80.5055L67.3847 68.3817L44.3815 86.9274L53.3635 99.0512L72.0759 124.309L80.626 136.377L92.3723 126.907L149.472 80.8718L161.219 71.4016L143.197 47.6041Z" fill="white"/>
</g>
<path d="M123.408 0H43.4082C21.3168 0 3.4082 17.9086 3.4082 40.0001V120C3.4082 142.092 21.3168 160 43.4082 160H123.408C145.5 160 163.408 142.092 163.408 120V40.0001C163.408 17.9086 145.5 0 123.408 0Z" fill="white"/>
<g filter="url(#filter2_d_5783_1413)">
<rect x="12.4834" y="90.4512" width="47.4728" height="30.1819" transform="rotate(-37.6696 12.4834 90.4512)" fill="#B6E7A4"/>
<path d="M126.088 39.9249L114.773 49.4503L69.4196 86.0156L59.2573 72.8263L50.2754 60.7025L27.2722 79.2482L36.2541 91.372L54.9665 116.63L63.5166 128.698L75.2629 119.228L132.363 73.1926L144.109 63.7224L126.088 39.9249Z" fill="white"/>
</g>
<path d="M123.405 0H43.4053C21.3139 0 3.40527 17.9086 3.40527 40.0001V120C3.40527 142.092 21.3139 160 43.4053 160H123.405C145.497 160 163.405 142.092 163.405 120V40.0001C163.405 17.9086 145.497 0 123.405 0Z" fill="white"/>
<path d="M39.1735 67.2487C38.553 66.7979 38.1754 66.2334 38.0406 65.5554C37.9059 64.8774 38.1062 64.1796 38.6416 63.4619C44.1375 55.7982 51.0304 49.8476 59.3204 45.61C67.6103 41.3725 76.4516 39.2537 85.8442 39.2537C95.2404 39.2537 104.105 41.3057 112.437 45.4099C120.77 49.514 127.728 55.4412 133.313 63.1914C133.933 64.0029 134.134 64.7242 133.914 65.3553C133.694 65.9864 133.316 66.5274 132.781 66.9782C132.249 67.429 131.629 67.6327 130.919 67.5895C130.21 67.5462 129.59 67.1621 129.058 66.4372C124.182 59.4047 117.912 54.0184 110.246 50.2786C102.58 46.5387 94.4462 44.6669 85.8442 44.6633C77.2458 44.6633 69.1793 46.5351 61.6446 50.2786C54.1099 54.022 47.8605 59.4083 42.8965 66.4372C42.3647 67.2487 41.7442 67.6995 41.035 67.7896C40.3259 67.8798 39.7054 67.6995 39.1735 67.2487ZM100.869 133.923C91.6504 131.579 84.1157 126.912 78.2652 119.923C72.4148 112.933 69.4895 104.391 69.4895 94.297C69.4895 89.7889 71.0851 86.0021 74.2763 82.9367C77.4674 79.8712 81.3234 78.3385 85.8442 78.3385C90.365 78.3385 94.221 79.8712 97.4122 82.9367C100.603 86.0021 102.199 89.7889 102.199 94.297C102.199 97.2723 103.307 99.7751 105.523 101.806C107.739 103.836 110.354 104.849 113.368 104.846C116.382 104.846 118.953 103.831 121.08 101.8C123.207 99.7697 124.271 97.2687 124.271 94.297C124.271 83.8383 120.504 75.0476 112.969 67.9249C105.434 60.8021 96.4371 57.2408 85.9772 57.2408C75.5173 57.2408 66.52 60.8021 58.9853 67.9249C51.4506 75.0476 47.6833 83.7932 47.6833 94.1617C47.6833 96.3256 47.8836 99.0304 48.2843 102.276C48.6849 105.522 49.637 109.309 51.1403 113.637C51.4063 114.448 51.385 115.169 51.0765 115.8C50.768 116.431 50.2575 116.882 49.5448 117.153C48.8356 117.423 48.1477 117.4 47.4812 117.082C46.8146 116.765 46.3501 116.248 46.0877 115.53C44.758 112.014 43.806 108.519 43.2316 105.046C42.6572 101.573 42.3682 97.99 42.3647 94.297C42.3647 82.3055 46.6426 72.2526 55.1984 64.1381C63.7543 56.0236 73.9696 51.9664 85.8442 51.9664C97.8111 51.9664 108.094 56.0236 116.692 64.1381C125.291 72.2526 129.59 82.3055 129.59 94.297C129.59 98.805 128.017 102.568 124.872 105.587C121.727 108.606 117.892 110.117 113.368 110.12C108.847 110.12 104.968 108.609 101.731 105.587C98.4936 102.565 96.8768 98.8014 96.8803 94.297C96.8803 91.3216 95.7953 88.8188 93.6253 86.7883C91.4553 84.7579 88.8616 83.7445 85.8442 83.7481C82.8303 83.7481 80.2366 84.7633 78.0631 86.7938C75.8896 88.8242 74.8046 91.3253 74.8081 94.297C74.8081 103.043 77.3575 110.346 82.4563 116.206C87.555 122.067 94.1359 126.169 102.199 128.513C102.997 128.784 103.529 129.234 103.794 129.865C104.06 130.497 104.105 131.173 103.927 131.894C103.75 132.525 103.396 133.066 102.864 133.517C102.332 133.968 101.667 134.103 100.869 133.923ZM56.459 38.9832C55.7498 39.434 55.0407 39.5476 54.3315 39.324C53.6224 39.1004 53.0905 38.6261 52.7359 37.9013C52.3814 37.18 52.2927 36.5272 52.47 35.943C52.6473 35.3587 53.0905 34.8394 53.7996 34.385C58.7637 31.6801 63.9493 29.6064 69.3566 28.1639C74.7638 26.7213 80.2597 26 85.8442 26C91.5174 26 97.0576 26.6996 102.465 28.0989C107.872 29.4982 113.102 31.5034 118.155 34.1145C118.953 34.5653 119.419 35.1063 119.554 35.7374C119.688 36.3685 119.621 36.9996 119.351 37.6308C119.085 38.2619 118.642 38.7578 118.022 39.1184C117.401 39.4791 116.648 39.434 115.761 38.9832C111.063 36.5488 106.209 34.6771 101.199 33.368C96.1889 32.0588 91.0706 31.4061 85.8442 31.4097C80.7029 31.4097 75.6502 32.0191 70.6862 33.2381C65.7222 34.4571 60.9798 36.3721 56.459 38.9832ZM72.1488 132.029C66.9189 126.439 62.9069 120.736 60.1128 114.919C57.3188 109.101 55.9235 102.228 55.9271 94.297C55.9271 86.0923 58.8523 79.1716 64.7028 73.5347C70.5532 67.8978 77.6004 65.0812 85.8442 65.0848C94.088 65.0848 101.18 67.9032 107.119 73.5401C113.058 79.177 116.027 86.0959 116.027 94.297C116.027 95.1084 115.783 95.763 115.293 96.2607C114.804 96.7584 114.162 97.0054 113.368 97.0018C112.659 97.0018 112.038 96.7529 111.506 96.2553C110.975 95.7576 110.709 95.1048 110.709 94.297C110.709 87.5349 108.248 81.8764 103.326 77.3214C98.405 72.7665 92.5776 70.4909 85.8442 70.4945C79.1073 70.4945 73.3225 72.7719 68.4896 77.3269C63.6568 81.8818 61.2421 87.5385 61.2457 94.297C61.2457 101.6 62.4867 107.799 64.9687 112.895C67.4507 117.991 71.0851 123.107 75.8718 128.243C76.4037 128.784 76.6696 129.415 76.6696 130.136C76.6696 130.857 76.4037 131.488 75.8718 132.029C75.34 132.57 74.7195 132.841 74.0103 132.841C73.3012 132.841 72.6807 132.57 72.1488 132.029ZM112.304 122.833C104.415 122.833 97.5664 120.128 91.7585 114.718C85.9506 109.309 83.0484 102.502 83.052 94.297C83.052 93.5757 83.2966 92.9445 83.7859 92.4036C84.2752 91.8626 84.917 91.5921 85.7113 91.5921C86.509 91.5921 87.1526 91.8626 87.6419 92.4036C88.1312 92.9445 88.3741 93.5757 88.3706 94.297C88.3706 101.059 90.7639 106.604 95.5507 110.932C100.337 115.259 105.922 117.423 112.304 117.423C112.836 117.423 113.59 117.378 114.565 117.288C115.54 117.198 116.559 117.063 117.623 116.882C118.421 116.702 119.109 116.816 119.686 117.223C120.264 117.631 120.64 118.238 120.814 119.046C120.991 119.767 120.858 120.399 120.415 120.94C119.972 121.481 119.396 121.841 118.687 122.021C117.091 122.472 115.696 122.721 114.501 122.768C113.306 122.815 112.574 122.837 112.304 122.833Z" fill="#645D5D"/>
<path d="M39.1735 67.2487C38.553 66.7979 38.1754 66.2334 38.0406 65.5554C37.9059 64.8774 38.1062 64.1796 38.6416 63.4619C44.1375 55.7982 51.0304 49.8476 59.3204 45.61C67.6103 41.3725 76.4516 39.2537 85.8442 39.2537C95.2404 39.2537 104.105 41.3057 112.437 45.4099C120.77 49.514 127.728 55.4412 133.313 63.1914C133.933 64.0029 134.134 64.7242 133.914 65.3553C133.694 65.9864 133.316 66.5274 132.781 66.9782C132.249 67.429 131.629 67.6327 130.919 67.5895C130.21 67.5462 129.59 67.1621 129.058 66.4372C124.182 59.4047 117.912 54.0184 110.246 50.2786C102.58 46.5387 94.4462 44.6669 85.8442 44.6633C77.2458 44.6633 69.1793 46.5351 61.6446 50.2786C54.1099 54.022 47.8605 59.4083 42.8965 66.4372C42.3647 67.2487 41.7442 67.6995 41.035 67.7896C40.3259 67.8798 39.7054 67.6995 39.1735 67.2487ZM100.869 133.923C91.6504 131.579 84.1157 126.912 78.2652 119.923C72.4148 112.933 69.4895 104.391 69.4895 94.297C69.4895 89.7889 71.0851 86.0021 74.2763 82.9367C77.4674 79.8712 81.3234 78.3385 85.8442 78.3385C90.365 78.3385 94.221 79.8712 97.4122 82.9367C100.603 86.0021 102.199 89.7889 102.199 94.297C102.199 97.2723 103.307 99.7751 105.523 101.806C107.739 103.836 110.354 104.849 113.368 104.846C116.382 104.846 118.953 103.831 121.08 101.8C123.207 99.7697 124.271 97.2687 124.271 94.297C124.271 83.8383 120.504 75.0476 112.969 67.9249C105.434 60.8021 96.4371 57.2408 85.9772 57.2408C75.5173 57.2408 66.52 60.8021 58.9853 67.9249C51.4506 75.0476 47.6833 83.7932 47.6833 94.1617C47.6833 96.3256 47.8836 99.0304 48.2843 102.276C48.6849 105.522 49.637 109.309 51.1403 113.637C51.4063 114.448 51.385 115.169 51.0765 115.8C50.768 116.431 50.2575 116.882 49.5448 117.153C48.8356 117.423 48.1477 117.4 47.4812 117.082C46.8146 116.765 46.3501 116.248 46.0877 115.53C44.758 112.014 43.806 108.519 43.2316 105.046C42.6572 101.573 42.3682 97.99 42.3647 94.297C42.3647 82.3055 46.6426 72.2526 55.1984 64.1381C63.7543 56.0236 73.9696 51.9664 85.8442 51.9664C97.8111 51.9664 108.094 56.0236 116.692 64.1381C125.291 72.2526 129.59 82.3055 129.59 94.297C129.59 98.805 128.017 102.568 124.872 105.587C121.727 108.606 117.892 110.117 113.368 110.12C108.847 110.12 104.968 108.609 101.731 105.587C98.4936 102.565 96.8768 98.8014 96.8803 94.297C96.8803 91.3216 95.7953 88.8188 93.6253 86.7883C91.4553 84.7579 88.8616 83.7445 85.8442 83.7481C82.8303 83.7481 80.2366 84.7633 78.0631 86.7938C75.8896 88.8242 74.8046 91.3253 74.8081 94.297C74.8081 103.043 77.3575 110.346 82.4563 116.206C87.555 122.067 94.1359 126.169 102.199 128.513C102.997 128.784 103.529 129.234 103.794 129.865C104.06 130.497 104.105 131.173 103.927 131.894C103.75 132.525 103.396 133.066 102.864 133.517C102.332 133.968 101.667 134.103 100.869 133.923ZM56.459 38.9832C55.7498 39.434 55.0407 39.5476 54.3315 39.324C53.6224 39.1004 53.0905 38.6261 52.7359 37.9013C52.3814 37.18 52.2927 36.5272 52.47 35.943C52.6473 35.3587 53.0905 34.8394 53.7996 34.385C58.7637 31.6801 63.9493 29.6064 69.3566 28.1639C74.7638 26.7213 80.2597 26 85.8442 26C91.5174 26 97.0576 26.6996 102.465 28.0989C107.872 29.4982 113.102 31.5034 118.155 34.1145C118.953 34.5653 119.419 35.1063 119.554 35.7374C119.688 36.3685 119.621 36.9996 119.351 37.6308C119.085 38.2619 118.642 38.7578 118.022 39.1184C117.401 39.4791 116.648 39.434 115.761 38.9832C111.063 36.5488 106.209 34.6771 101.199 33.368C96.1889 32.0588 91.0706 31.4061 85.8442 31.4097C80.7029 31.4097 75.6502 32.0191 70.6862 33.2381C65.7222 34.4571 60.9798 36.3721 56.459 38.9832ZM72.1488 132.029C66.9189 126.439 62.9069 120.736 60.1128 114.919C57.3188 109.101 55.9235 102.228 55.9271 94.297C55.9271 86.0923 58.8523 79.1716 64.7028 73.5347C70.5532 67.8978 77.6004 65.0812 85.8442 65.0848C94.088 65.0848 101.18 67.9032 107.119 73.5401C113.058 79.177 116.027 86.0959 116.027 94.297C116.027 95.1084 115.783 95.763 115.293 96.2607C114.804 96.7584 114.162 97.0054 113.368 97.0018C112.659 97.0018 112.038 96.7529 111.506 96.2553C110.975 95.7576 110.709 95.1048 110.709 94.297C110.709 87.5349 108.248 81.8764 103.326 77.3214C98.405 72.7665 92.5776 70.4909 85.8442 70.4945C79.1073 70.4945 73.3225 72.7719 68.4896 77.3269C63.6568 81.8818 61.2421 87.5385 61.2457 94.297C61.2457 101.6 62.4867 107.799 64.9687 112.895C67.4507 117.991 71.0851 123.107 75.8718 128.243C76.4037 128.784 76.6696 129.415 76.6696 130.136C76.6696 130.857 76.4037 131.488 75.8718 132.029C75.34 132.57 74.7195 132.841 74.0103 132.841C73.3012 132.841 72.6807 132.57 72.1488 132.029ZM112.304 122.833C104.415 122.833 97.5664 120.128 91.7585 114.718C85.9506 109.309 83.0484 102.502 83.052 94.297C83.052 93.5757 83.2966 92.9445 83.7859 92.4036C84.2752 91.8626 84.917 91.5921 85.7113 91.5921C86.509 91.5921 87.1526 91.8626 87.6419 92.4036C88.1312 92.9445 88.3741 93.5757 88.3706 94.297C88.3706 101.059 90.7639 106.604 95.5507 110.932C100.337 115.259 105.922 117.423 112.304 117.423C112.836 117.423 113.59 117.378 114.565 117.288C115.54 117.198 116.559 117.063 117.623 116.882C118.421 116.702 119.109 116.816 119.686 117.223C120.264 117.631 120.64 118.238 120.814 119.046C120.991 119.767 120.858 120.399 120.415 120.94C119.972 121.481 119.396 121.841 118.687 122.021C117.091 122.472 115.696 122.721 114.501 122.768C113.306 122.815 112.574 122.837 112.304 122.833Z" fill="#645D5D"/>
<defs>
<filter id="filter0_d_5783_1413" x="8.48438" y="39.9248" width="139.626" height="96.7734" filterUnits="userSpaceOnUse" color-interpolation-filters="sRGB">
<feFlood flood-opacity="0" result="BackgroundImageFix"/>
<feColorMatrix in="SourceAlpha" type="matrix" values="0 0 0 0 0 0 0 0 0 0 0 0 0 0 0 0 0 0 127 0" result="hardAlpha"/>
<feOffset dy="4"/>
<feGaussianBlur stdDeviation="2"/>
<feComposite in2="hardAlpha" operator="out"/>
<feColorMatrix type="matrix" values="0 0 0 0 0 0 0 0 0 0 0 0 0 0 0 0 0 0 0.25 0"/>
<feBlend mode="normal" in2="BackgroundImageFix" result="effect1_dropShadow_5783_1413"/>
<feBlend mode="normal" in="SourceGraphic" in2="effect1_dropShadow_5783_1413" result="shape"/>
</filter>
<filter id="filter1_d_5783_1413" x="0.354492" y="44.752" width="164.864" height="99.6255" filterUnits="userSpaceOnUse" color-interpolation-filters="sRGB">
<feFlood flood-opacity="0" result="BackgroundImageFix"/>
<feColorMatrix in="SourceAlpha" type="matrix" values="0 0 0 0 0 0 0 0 0 0 0 0 0 0 0 0 0 0 127 0" result="hardAlpha"/>
<feOffset dy="4"/>
<feGaussianBlur stdDeviation="2"/>
<feComposite in2="hardAlpha" operator="out"/>
<feColorMatrix type="matrix" values="0 0 0 0 0 0 0 0 0 0 0 0 0 0 0 0 0 0 0.25 0"/>
<feBlend mode="normal" in2="BackgroundImageFix" result="effect1_dropShadow_5783_1413"/>
<feBlend mode="normal" in="SourceGraphic" in2="effect1_dropShadow_5783_1413" result="shape"/>
</filter>
<filter id="filter2_d_5783_1413" x="8.4834" y="39.9248" width="139.626" height="96.7734" filterUnits="userSpaceOnUse" color-interpolation-filters="sRGB">
<feFlood flood-opacity="0" result="BackgroundImageFix"/>
<feColorMatrix in="SourceAlpha" type="matrix" values="0 0 0 0 0 0 0 0 0 0 0 0 0 0 0 0 0 0 127 0" result="hardAlpha"/>
<feOffset dy="4"/>
<feGaussianBlur stdDeviation="2"/>
<feComposite in2="hardAlpha" operator="out"/>
<feColorMatrix type="matrix" values="0 0 0 0 0 0 0 0 0 0 0 0 0 0 0 0 0 0 0.25 0"/>
<feBlend mode="normal" in2="BackgroundImageFix" result="effect1_dropShadow_5783_1413"/>
<feBlend mode="normal" in="SourceGraphic" in2="effect1_dropShadow_5783_1413" result="shape"/>
</filter>
</defs>
</svg>
