<svg width="1385" height="160" viewBox="0 0 1385 160" fill="none" xmlns="http://www.w3.org/2000/svg">
<path d="M239.929 61.8267C239.588 58.3892 238.125 55.7187 235.54 53.8153C232.955 51.9119 229.446 50.9602 225.014 50.9602C222.003 50.9602 219.46 51.3864 217.386 52.2386C215.313 53.0625 213.722 54.2131 212.614 55.6903C211.534 57.1676 210.994 58.8438 210.994 60.7188C210.938 62.2812 211.264 63.6449 211.974 64.8097C212.713 65.9744 213.722 66.983 215 67.8352C216.278 68.6591 217.756 69.3835 219.432 70.0085C221.108 70.6051 222.898 71.1165 224.801 71.5426L232.642 73.4176C236.449 74.2699 239.943 75.4062 243.125 76.8267C246.307 78.2472 249.063 79.9943 251.392 82.0682C253.722 84.142 255.526 86.5852 256.804 89.3977C258.111 92.2102 258.778 95.4347 258.807 99.071C258.778 104.412 257.415 109.043 254.716 112.963C252.045 116.855 248.182 119.881 243.125 122.04C238.097 124.17 232.031 125.236 224.929 125.236C217.884 125.236 211.747 124.156 206.52 121.997C201.321 119.838 197.259 116.642 194.332 112.409C191.435 108.148 189.915 102.878 189.773 96.5994H207.628C207.827 99.5256 208.665 101.969 210.142 103.929C211.648 105.861 213.651 107.324 216.151 108.318C218.679 109.284 221.534 109.767 224.716 109.767C227.841 109.767 230.554 109.312 232.855 108.403C235.185 107.494 236.989 106.23 238.267 104.611C239.545 102.991 240.185 101.131 240.185 99.0284C240.185 97.0682 239.602 95.4205 238.438 94.0852C237.301 92.75 235.625 91.6136 233.409 90.6761C231.222 89.7386 228.537 88.8864 225.355 88.1193L215.852 85.733C208.494 83.9432 202.685 81.1449 198.423 77.3381C194.162 73.5312 192.045 68.4034 192.074 61.9545C192.045 56.6705 193.452 52.054 196.293 48.1051C199.162 44.1562 203.097 41.0739 208.097 38.858C213.097 36.642 218.778 35.5341 225.142 35.5341C231.619 35.5341 237.273 36.642 242.102 38.858C246.96 41.0739 250.739 44.1562 253.438 48.1051C256.136 52.054 257.528 56.6278 257.614 61.8267H239.929ZM289.542 125.236C285.366 125.236 281.644 124.511 278.377 123.062C275.11 121.585 272.525 119.412 270.621 116.543C268.746 113.645 267.809 110.037 267.809 105.719C267.809 102.082 268.477 99.0284 269.812 96.5568C271.147 94.0852 272.965 92.0966 275.266 90.5909C277.567 89.0852 280.181 87.9489 283.107 87.1818C286.062 86.4148 289.158 85.875 292.397 85.5625C296.204 85.1648 299.272 84.7955 301.602 84.4545C303.931 84.0852 305.621 83.5455 306.673 82.8352C307.724 82.125 308.249 81.0739 308.249 79.6818V79.4261C308.249 76.7273 307.397 74.6392 305.692 73.1619C304.016 71.6847 301.63 70.946 298.533 70.946C295.266 70.946 292.667 71.6705 290.735 73.1193C288.803 74.5398 287.525 76.3295 286.9 78.4886L270.11 77.125C270.962 73.1477 272.638 69.7102 275.138 66.8125C277.638 63.8864 280.863 61.642 284.812 60.0795C288.789 58.4886 293.391 57.6932 298.619 57.6932C302.255 57.6932 305.735 58.1193 309.059 58.9716C312.411 59.8239 315.38 61.1449 317.965 62.9347C320.579 64.7244 322.638 67.0256 324.144 69.8381C325.65 72.6222 326.403 75.9602 326.403 79.8523V124H309.187V114.923H308.675C307.624 116.969 306.218 118.773 304.457 120.335C302.695 121.869 300.579 123.077 298.107 123.957C295.636 124.81 292.781 125.236 289.542 125.236ZM294.741 112.707C297.411 112.707 299.769 112.182 301.815 111.131C303.86 110.051 305.465 108.602 306.63 106.784C307.795 104.966 308.377 102.906 308.377 100.605V93.6591C307.809 94.0284 307.028 94.3693 306.033 94.6818C305.067 94.9659 303.974 95.2358 302.752 95.4915C301.531 95.7187 300.309 95.9318 299.087 96.1307C297.866 96.3011 296.758 96.4574 295.763 96.5994C293.633 96.9119 291.772 97.4091 290.181 98.0909C288.59 98.7727 287.354 99.696 286.474 100.861C285.593 101.997 285.153 103.418 285.153 105.122C285.153 107.594 286.048 109.483 287.837 110.79C289.656 112.068 291.957 112.707 294.741 112.707ZM375.685 58.5455V72.1818H335.288V58.5455H375.685ZM344.535 124V53.8153C344.535 49.071 345.458 45.1364 347.305 42.0114C349.18 38.8864 351.737 36.5426 354.975 34.9801C358.214 33.4176 361.893 32.6364 366.012 32.6364C368.796 32.6364 371.339 32.8494 373.64 33.2756C375.969 33.7017 377.702 34.0852 378.839 34.4261L375.6 48.0625C374.89 47.8352 374.009 47.6222 372.958 47.4233C371.935 47.2244 370.884 47.125 369.805 47.125C367.134 47.125 365.273 47.75 364.222 49C363.171 50.2216 362.646 51.9403 362.646 54.1562V124H344.535ZM414.261 125.278C407.528 125.278 401.733 123.915 396.875 121.188C392.045 118.432 388.324 114.54 385.71 109.511C383.097 104.455 381.79 98.4744 381.79 91.571C381.79 84.8381 383.097 78.929 385.71 73.8438C388.324 68.7585 392.003 64.7955 396.747 61.9545C401.52 59.1136 407.116 57.6932 413.537 57.6932C417.855 57.6932 421.875 58.3892 425.597 59.7812C429.347 61.1449 432.614 63.2045 435.398 65.9602C438.21 68.7159 440.398 72.1818 441.96 76.358C443.523 80.5057 444.304 85.3636 444.304 90.9318V95.9176H389.034V84.6676H427.216C427.216 82.054 426.648 79.7386 425.511 77.7216C424.375 75.7045 422.798 74.1278 420.781 72.9915C418.793 71.8267 416.477 71.2443 413.835 71.2443C411.08 71.2443 408.636 71.8835 406.506 73.1619C404.403 74.4119 402.756 76.1023 401.562 78.233C400.369 80.3352 399.759 82.679 399.73 85.2642V95.9602C399.73 99.1989 400.327 101.997 401.52 104.355C402.741 106.713 404.46 108.531 406.676 109.81C408.892 111.088 411.52 111.727 414.56 111.727C416.577 111.727 418.423 111.443 420.099 110.875C421.776 110.307 423.21 109.455 424.403 108.318C425.597 107.182 426.506 105.79 427.131 104.142L443.92 105.25C443.068 109.284 441.321 112.807 438.679 115.818C436.065 118.801 432.685 121.131 428.537 122.807C424.418 124.455 419.659 125.278 414.261 125.278Z" fill="#8BCC58"/>
<path d="M480.387 80.7472V72.1818C485.302 72.1818 488.711 71.2017 490.614 69.2415C492.518 67.2812 493.469 64.1136 493.469 59.7386V50.321C493.469 45.0653 494.194 40.8608 495.643 37.7074C497.12 34.5256 499.165 32.125 501.779 30.5057C504.421 28.8864 507.546 27.8068 511.154 27.267C514.762 26.7273 518.711 26.4574 523.001 26.4574V40.0085C519.648 40.0085 517.092 40.4489 515.33 41.3295C513.597 42.1818 512.418 43.517 511.793 45.3352C511.168 47.125 510.856 49.3977 510.856 52.1534V64.5966C510.856 66.7557 510.458 68.8153 509.663 70.7756C508.867 72.7074 507.39 74.4261 505.231 75.9318C503.072 77.4091 499.989 78.5881 495.984 79.4688C491.978 80.321 486.779 80.7472 480.387 80.7472ZM523.001 134.312C518.711 134.312 514.762 134.043 511.154 133.503C507.546 132.963 504.421 131.884 501.779 130.264C499.165 128.645 497.12 126.259 495.643 123.105C494.194 119.923 493.469 115.705 493.469 110.449V100.989C493.469 96.6136 492.518 93.446 490.614 91.4858C488.711 89.5256 485.302 88.5455 480.387 88.5455V79.9801C486.779 79.9801 491.978 80.4205 495.984 81.3011C499.989 82.1534 503.072 83.3324 505.231 84.8381C507.39 86.3153 508.867 88.0341 509.663 89.9943C510.458 91.9261 510.856 93.9858 510.856 96.1733V108.616C510.856 111.344 511.168 113.616 511.793 115.435C512.418 117.224 513.597 118.56 515.33 119.44C517.092 120.293 519.648 120.719 523.001 120.719V134.312ZM480.387 88.5455V72.1818H495.685V88.5455H480.387ZM533.366 124V36.7273H567.798C574.418 36.7273 580.057 37.9915 584.716 40.5199C589.375 43.0199 592.926 46.5 595.369 50.9602C597.841 55.392 599.077 60.5057 599.077 66.3011C599.077 72.0966 597.827 77.2102 595.327 81.642C592.827 86.0739 589.205 89.5256 584.46 91.9972C579.744 94.4687 574.034 95.7045 567.33 95.7045H545.384V80.9176H564.347C567.898 80.9176 570.824 80.3068 573.125 79.0852C575.455 77.8352 577.188 76.1165 578.324 73.929C579.489 71.7131 580.071 69.1705 580.071 66.3011C580.071 63.4034 579.489 60.875 578.324 58.7159C577.188 56.5284 575.455 54.8381 573.125 53.6449C570.795 52.4233 567.841 51.8125 564.261 51.8125H551.818V124H533.366ZM627.628 125.236C623.452 125.236 619.73 124.511 616.463 123.062C613.196 121.585 610.611 119.412 608.707 116.543C606.832 113.645 605.895 110.037 605.895 105.719C605.895 102.082 606.563 99.0284 607.898 96.5568C609.233 94.0852 611.051 92.0966 613.352 90.5909C615.653 89.0852 618.267 87.9489 621.193 87.1818C624.148 86.4148 627.244 85.875 630.483 85.5625C634.29 85.1648 637.358 84.7955 639.688 84.4545C642.017 84.0852 643.707 83.5455 644.759 82.8352C645.81 82.125 646.335 81.0739 646.335 79.6818V79.4261C646.335 76.7273 645.483 74.6392 643.778 73.1619C642.102 71.6847 639.716 70.946 636.619 70.946C633.352 70.946 630.753 71.6705 628.821 73.1193C626.889 74.5398 625.611 76.3295 624.986 78.4886L608.196 77.125C609.048 73.1477 610.724 69.7102 613.224 66.8125C615.724 63.8864 618.949 61.642 622.898 60.0795C626.875 58.4886 631.477 57.6932 636.705 57.6932C640.341 57.6932 643.821 58.1193 647.145 58.9716C650.497 59.8239 653.466 61.1449 656.051 62.9347C658.665 64.7244 660.724 67.0256 662.23 69.8381C663.736 72.6222 664.489 75.9602 664.489 79.8523V124H647.273V114.923H646.761C645.71 116.969 644.304 118.773 642.543 120.335C640.781 121.869 638.665 123.077 636.193 123.957C633.722 124.81 630.866 125.236 627.628 125.236ZM632.827 112.707C635.497 112.707 637.855 112.182 639.901 111.131C641.946 110.051 643.551 108.602 644.716 106.784C645.881 104.966 646.463 102.906 646.463 100.605V93.6591C645.895 94.0284 645.114 94.3693 644.119 94.6818C643.153 94.9659 642.06 95.2358 640.838 95.4915C639.616 95.7187 638.395 95.9318 637.173 96.1307C635.952 96.3011 634.844 96.4574 633.849 96.5994C631.719 96.9119 629.858 97.4091 628.267 98.0909C626.676 98.7727 625.44 99.696 624.56 100.861C623.679 101.997 623.239 103.418 623.239 105.122C623.239 107.594 624.134 109.483 625.923 110.79C627.741 112.068 630.043 112.707 632.827 112.707ZM733.033 77.2102L716.413 78.233C716.129 76.8125 715.518 75.5341 714.581 74.3977C713.643 73.233 712.408 72.3097 710.874 71.6278C709.368 70.9176 707.564 70.5625 705.462 70.5625C702.649 70.5625 700.277 71.1591 698.345 72.3523C696.413 73.517 695.447 75.0795 695.447 77.0398C695.447 78.6023 696.072 79.9233 697.322 81.0028C698.572 82.0824 700.717 82.9489 703.757 83.6023L715.604 85.9886C721.967 87.2955 726.712 89.3977 729.837 92.2955C732.962 95.1932 734.524 99 734.524 103.716C734.524 108.006 733.26 111.77 730.732 115.009C728.232 118.247 724.794 120.776 720.419 122.594C716.072 124.384 711.058 125.278 705.376 125.278C696.712 125.278 689.808 123.474 684.666 119.866C679.553 116.23 676.555 111.287 675.675 105.037L693.53 104.099C694.07 106.741 695.376 108.759 697.45 110.151C699.524 111.514 702.18 112.196 705.419 112.196C708.601 112.196 711.158 111.585 713.089 110.364C715.05 109.114 716.044 107.509 716.072 105.548C716.044 103.901 715.348 102.551 713.984 101.5C712.621 100.42 710.518 99.5966 707.678 99.0284L696.342 96.7699C689.95 95.4915 685.192 93.2756 682.067 90.1222C678.97 86.9687 677.422 82.9489 677.422 78.0625C677.422 73.858 678.558 70.2358 680.831 67.196C683.132 64.1562 686.357 61.8125 690.504 60.1648C694.68 58.517 699.567 57.6932 705.163 57.6932C713.43 57.6932 719.936 59.4403 724.68 62.9347C729.453 66.429 732.237 71.1875 733.033 77.2102ZM800.415 77.2102L783.796 78.233C783.512 76.8125 782.901 75.5341 781.964 74.3977C781.026 73.233 779.79 72.3097 778.256 71.6278C776.751 70.9176 774.947 70.5625 772.844 70.5625C770.032 70.5625 767.66 71.1591 765.728 72.3523C763.796 73.517 762.83 75.0795 762.83 77.0398C762.83 78.6023 763.455 79.9233 764.705 81.0028C765.955 82.0824 768.1 82.9489 771.14 83.6023L782.987 85.9886C789.35 87.2955 794.094 89.3977 797.219 92.2955C800.344 95.1932 801.907 99 801.907 103.716C801.907 108.006 800.643 111.77 798.114 115.009C795.614 118.247 792.177 120.776 787.802 122.594C783.455 124.384 778.441 125.278 772.759 125.278C764.094 125.278 757.191 123.474 752.049 119.866C746.935 116.23 743.938 111.287 743.058 105.037L760.913 104.099C761.452 106.741 762.759 108.759 764.833 110.151C766.907 111.514 769.563 112.196 772.802 112.196C775.984 112.196 778.54 111.585 780.472 110.364C782.433 109.114 783.427 107.509 783.455 105.548C783.427 103.901 782.731 102.551 781.367 101.5C780.004 100.42 777.901 99.5966 775.06 99.0284L763.725 96.7699C757.333 95.4915 752.575 93.2756 749.45 90.1222C746.353 86.9687 744.805 82.9489 744.805 78.0625C744.805 73.858 745.941 70.2358 748.214 67.196C750.515 64.1562 753.739 61.8125 757.887 60.1648C762.063 58.517 766.95 57.6932 772.546 57.6932C780.813 57.6932 787.319 59.4403 792.063 62.9347C796.836 66.429 799.62 71.1875 800.415 77.2102ZM813.679 124V36.7273H832.131V75.2074H833.281L864.688 36.7273H886.804L854.418 75.804L887.188 124H865.114L841.207 88.1193L832.131 99.1989V124H813.679ZM921.097 125.278C914.364 125.278 908.569 123.915 903.711 121.188C898.881 118.432 895.16 114.54 892.546 109.511C889.933 104.455 888.626 98.4744 888.626 91.571C888.626 84.8381 889.933 78.929 892.546 73.8438C895.16 68.7585 898.839 64.7955 903.583 61.9545C908.356 59.1136 913.952 57.6932 920.373 57.6932C924.691 57.6932 928.711 58.3892 932.433 59.7812C936.183 61.1449 939.45 63.2045 942.234 65.9602C945.046 68.7159 947.234 72.1818 948.796 76.358C950.359 80.5057 951.14 85.3636 951.14 90.9318V95.9176H895.87V84.6676H934.052C934.052 82.054 933.484 79.7386 932.347 77.7216C931.211 75.7045 929.634 74.1278 927.617 72.9915C925.629 71.8267 923.313 71.2443 920.671 71.2443C917.915 71.2443 915.472 71.8835 913.342 73.1619C911.239 74.4119 909.592 76.1023 908.398 78.233C907.205 80.3352 906.594 82.679 906.566 85.2642V95.9602C906.566 99.1989 907.163 101.997 908.356 104.355C909.577 106.713 911.296 108.531 913.512 109.81C915.728 111.088 918.356 111.727 921.396 111.727C923.413 111.727 925.259 111.443 926.935 110.875C928.612 110.307 930.046 109.455 931.239 108.318C932.433 107.182 933.342 105.79 933.967 104.142L950.756 105.25C949.904 109.284 948.157 112.807 945.515 115.818C942.901 118.801 939.521 121.131 935.373 122.807C931.254 124.455 926.495 125.278 921.097 125.278ZM972.436 148.545C970.135 148.545 967.976 148.361 965.959 147.991C963.97 147.651 962.322 147.21 961.016 146.67L965.107 133.119C967.237 133.773 969.155 134.128 970.859 134.185C972.592 134.241 974.084 133.844 975.334 132.991C976.612 132.139 977.649 130.69 978.445 128.645L979.51 125.875L956.03 58.5455H975.121L988.672 106.614H989.354L1003.03 58.5455H1022.25L996.811 131.074C995.589 134.597 993.928 137.665 991.825 140.278C989.751 142.92 987.124 144.952 983.942 146.372C980.76 147.821 976.925 148.545 972.436 148.545ZM1069.68 88.6307V97.196C1064.79 97.196 1061.38 98.1761 1059.45 100.136C1057.55 102.097 1056.6 105.264 1056.6 109.639V119.099C1056.6 124.355 1055.86 128.56 1054.38 131.713C1052.93 134.895 1050.89 137.295 1048.25 138.915C1045.63 140.534 1042.52 141.614 1038.91 142.153C1035.33 142.693 1031.38 142.963 1027.07 142.963V129.369C1030.42 129.369 1032.96 128.929 1034.69 128.048C1036.46 127.196 1037.65 125.861 1038.27 124.043C1038.9 122.253 1039.21 119.994 1039.21 117.267V104.824C1039.21 102.636 1039.61 100.577 1040.4 98.6449C1041.2 96.6847 1042.68 94.9659 1044.84 93.4886C1047 91.983 1050.08 90.804 1054.08 89.9517C1058.09 89.071 1063.29 88.6307 1069.68 88.6307ZM1027.07 35.108C1031.38 35.108 1035.33 35.3778 1038.91 35.9176C1042.52 36.4574 1045.63 37.5369 1048.25 39.1562C1050.89 40.7756 1052.93 43.1761 1054.38 46.358C1055.86 49.5114 1056.6 53.7159 1056.6 58.9716V68.3892C1056.6 72.7642 1057.55 75.9318 1059.45 77.892C1061.38 79.8523 1064.79 80.8324 1069.68 80.8324V89.3977C1063.29 89.3977 1058.09 88.9716 1054.08 88.1193C1050.08 87.2386 1047 86.0597 1044.84 84.5824C1042.68 83.0767 1041.2 81.358 1040.4 79.4261C1039.61 77.4659 1039.21 75.4062 1039.21 73.2472V60.804C1039.21 58.0483 1038.9 55.7756 1038.27 53.9858C1037.65 52.1676 1036.46 50.8324 1034.69 49.9801C1032.96 49.0994 1030.42 48.6591 1027.07 48.6591V35.108ZM1069.68 80.8324V97.196H1054.38V80.8324H1069.68Z" fill="#645D5D"/>
<path d="M123.409 0H43.4092C21.3178 0 3.40918 17.9086 3.40918 40.0001V120C3.40918 142.092 21.3178 160 43.4092 160H123.409C145.501 160 163.409 142.092 163.409 120V40.0001C163.409 17.9086 145.501 0 123.409 0Z" fill="#645D5D"/>
<g filter="url(#filter0_d_5783_1317)">
<rect x="12.4844" y="90.4512" width="47.4728" height="30.1819" transform="rotate(-37.6696 12.4844 90.4512)" fill="white"/>
<path d="M126.089 39.9249L114.774 49.4503L69.4206 86.0156L59.2583 72.8263L50.2763 60.7025L27.2731 79.2482L36.2551 91.372L54.9675 116.63L63.5176 128.698L75.2639 119.228L132.364 73.1926L144.11 63.7224L126.089 39.9249Z" fill="white"/>
</g>
<path d="M123.405 0H43.4053C21.3139 0 3.40527 17.9086 3.40527 40.0001V120C3.40527 142.092 21.3139 160 43.4053 160H123.405C145.497 160 163.405 142.092 163.405 120V40.0001C163.405 17.9086 145.497 0 123.405 0Z" fill="#645D5D"/>
<g filter="url(#filter1_d_5783_1317)">
<rect x="4.35449" y="80.0176" width="57.0217" height="30.1819" transform="rotate(-38.2037 4.35449 80.0176)" fill="white"/>
<path d="M143.197 47.6041L131.883 57.1295L86.529 93.6948L76.3667 80.5055L67.3847 68.3817L44.3815 86.9274L53.3635 99.0512L72.0759 124.309L80.626 136.377L92.3723 126.907L149.472 80.8718L161.219 71.4016L143.197 47.6041Z" fill="white"/>
</g>
<path d="M123.408 0H43.4082C21.3168 0 3.4082 17.9086 3.4082 40.0001V120C3.4082 142.092 21.3168 160 43.4082 160H123.408C145.5 160 163.408 142.092 163.408 120V40.0001C163.408 17.9086 145.5 0 123.408 0Z" fill="#645D5D"/>
<g filter="url(#filter2_d_5783_1317)">
<rect x="12.4834" y="90.4512" width="47.4728" height="30.1819" transform="rotate(-37.6696 12.4834 90.4512)" fill="white"/>
<path d="M126.088 39.9249L114.773 49.4503L69.4196 86.0156L59.2573 72.8263L50.2754 60.7025L27.2722 79.2482L36.2541 91.372L54.9665 116.63L63.5166 128.698L75.2629 119.228L132.363 73.1926L144.109 63.7224L126.088 39.9249Z" fill="white"/>
</g>
<path d="M123.405 0H43.4053C21.3139 0 3.40527 17.9086 3.40527 40.0001V120C3.40527 142.092 21.3139 160 43.4053 160H123.405C145.497 160 163.405 142.092 163.405 120V40.0001C163.405 17.9086 145.497 0 123.405 0Z" fill="#645D5D"/>
<path d="M123.409 0H43.4092C21.3178 0 3.40918 17.9086 3.40918 40.0001V120C3.40918 142.092 21.3178 160 43.4092 160H123.409C145.501 160 163.409 142.092 163.409 120V40.0001C163.409 17.9086 145.501 0 123.409 0Z" fill="#645D5D"/>
<g filter="url(#filter3_d_5783_1317)">
<rect x="12.4844" y="90.4512" width="47.4728" height="30.1819" transform="rotate(-37.6696 12.4844 90.4512)" fill="white"/>
<path d="M126.089 39.9249L114.774 49.4503L69.4206 86.0156L59.2583 72.8263L50.2763 60.7025L27.2731 79.2482L36.2551 91.372L54.9675 116.63L63.5176 128.698L75.2639 119.228L132.364 73.1926L144.11 63.7224L126.089 39.9249Z" fill="white"/>
</g>
<path d="M123.405 0H43.4053C21.3139 0 3.40527 17.9086 3.40527 40.0001V120C3.40527 142.092 21.3139 160 43.4053 160H123.405C145.497 160 163.405 142.092 163.405 120V40.0001C163.405 17.9086 145.497 0 123.405 0Z" fill="#645D5D"/>
<g filter="url(#filter4_d_5783_1317)">
<rect x="4.35449" y="80.0176" width="57.0217" height="30.1819" transform="rotate(-38.2037 4.35449 80.0176)" fill="white"/>
<path d="M143.197 47.6041L131.883 57.1295L86.529 93.6948L76.3667 80.5055L67.3847 68.3817L44.3815 86.9274L53.3635 99.0512L72.0759 124.309L80.626 136.377L92.3723 126.907L149.472 80.8718L161.219 71.4016L143.197 47.6041Z" fill="white"/>
</g>
<path d="M123.408 0H43.4082C21.3168 0 3.4082 17.9086 3.4082 40.0001V120C3.4082 142.092 21.3168 160 43.4082 160H123.408C145.5 160 163.408 142.092 163.408 120V40.0001C163.408 17.9086 145.5 0 123.408 0Z" fill="#645D5D"/>
<g filter="url(#filter5_d_5783_1317)">
<rect x="12.4834" y="90.4512" width="47.4728" height="30.1819" transform="rotate(-37.6696 12.4834 90.4512)" fill="white"/>
<path d="M126.088 39.9249L114.773 49.4503L69.4196 86.0156L59.2573 72.8263L50.2754 60.7025L27.2722 79.2482L36.2541 91.372L54.9665 116.63L63.5166 128.698L75.2629 119.228L132.363 73.1926L144.109 63.7224L126.088 39.9249Z" fill="white"/>
</g>
<path d="M123.405 0H43.4053C21.3139 0 3.40527 17.9086 3.40527 40.0001V120C3.40527 142.092 21.3139 160 43.4053 160H123.405C145.497 160 163.405 142.092 163.405 120V40.0001C163.405 17.9086 145.497 0 123.405 0Z" fill="#645D5D"/>
<g clip-path="url(#clip0_5783_1317)">
<path d="M38.1735 69.2487C37.553 68.7979 37.1754 68.2334 37.0406 67.5554C36.9059 66.8774 37.1062 66.1796 37.6416 65.4619C43.1375 57.7982 50.0304 51.8476 58.3204 47.61C66.6103 43.3725 75.4516 41.2537 84.8442 41.2537C94.2404 41.2537 103.105 43.3057 111.437 47.4099C119.77 51.514 126.728 57.4412 132.313 65.1914C132.933 66.0029 133.134 66.7242 132.914 67.3553C132.694 67.9864 132.316 68.5274 131.781 68.9782C131.249 69.429 130.629 69.6327 129.919 69.5895C129.21 69.5462 128.59 69.1621 128.058 68.4372C123.182 61.4047 116.912 56.0184 109.246 52.2786C101.58 48.5387 93.4462 46.6669 84.8442 46.6633C76.2458 46.6633 68.1793 48.5351 60.6446 52.2786C53.1099 56.022 46.8605 61.4083 41.8965 68.4372C41.3647 69.2487 40.7442 69.6995 40.035 69.7896C39.3259 69.8798 38.7054 69.6995 38.1735 69.2487ZM99.8693 135.923C90.6504 133.579 83.1157 128.912 77.2652 121.923C71.4148 114.933 68.4895 106.391 68.4895 96.297C68.4895 91.7889 70.0851 88.0021 73.2763 84.9367C76.4674 81.8712 80.3234 80.3385 84.8442 80.3385C89.365 80.3385 93.221 81.8712 96.4122 84.9367C99.6033 88.0021 101.199 91.7889 101.199 96.297C101.199 99.2723 102.307 101.775 104.523 103.806C106.739 105.836 109.354 106.849 112.368 106.846C115.382 106.846 117.953 105.831 120.08 103.8C122.207 101.77 123.271 99.2687 123.271 96.297C123.271 85.8383 119.504 77.0476 111.969 69.9249C104.434 62.8021 95.4371 59.2408 84.9772 59.2408C74.5173 59.2408 65.52 62.8021 57.9853 69.9249C50.4506 77.0476 46.6833 85.7932 46.6833 96.1617C46.6833 98.3256 46.8836 101.03 47.2843 104.276C47.6849 107.522 48.637 111.309 50.1403 115.637C50.4063 116.448 50.385 117.169 50.0765 117.8C49.768 118.431 49.2575 118.882 48.5448 119.153C47.8356 119.423 47.1477 119.4 46.4812 119.082C45.8146 118.765 45.3501 118.248 45.0877 117.53C43.758 114.014 42.806 110.519 42.2316 107.046C41.6572 103.573 41.3682 99.99 41.3647 96.297C41.3647 84.3055 45.6426 74.2526 54.1984 66.1381C62.7543 58.0236 72.9696 53.9664 84.8442 53.9664C96.8111 53.9664 107.094 58.0236 115.692 66.1381C124.291 74.2526 128.59 84.3055 128.59 96.297C128.59 100.805 127.017 104.568 123.872 107.587C120.727 110.606 116.892 112.117 112.368 112.12C107.847 112.12 103.968 110.609 100.731 107.587C97.4936 104.565 95.8768 100.801 95.8803 96.297C95.8803 93.3216 94.7953 90.8188 92.6253 88.7883C90.4553 86.7579 87.8616 85.7445 84.8442 85.7481C81.8303 85.7481 79.2366 86.7633 77.0631 88.7938C74.8896 90.8242 73.8046 93.3253 73.8081 96.297C73.8081 105.043 76.3575 112.346 81.4563 118.206C86.555 124.067 93.1359 128.169 101.199 130.513C101.997 130.784 102.529 131.234 102.794 131.865C103.06 132.497 103.105 133.173 102.927 133.894C102.75 134.525 102.396 135.066 101.864 135.517C101.332 135.968 100.667 136.103 99.8693 135.923ZM55.459 40.9832C54.7498 41.434 54.0407 41.5476 53.3315 41.324C52.6224 41.1004 52.0905 40.6261 51.7359 39.9013C51.3814 39.18 51.2927 38.5272 51.47 37.943C51.6473 37.3587 52.0905 36.8394 52.7996 36.385C57.7637 33.6801 62.9493 31.6064 68.3566 30.1639C73.7638 28.7213 79.2597 28 84.8442 28C90.5174 28 96.0576 28.6996 101.465 30.0989C106.872 31.4982 112.102 33.5034 117.155 36.1145C117.953 36.5653 118.419 37.1063 118.554 37.7374C118.688 38.3685 118.621 38.9996 118.351 39.6308C118.085 40.2619 117.642 40.7578 117.022 41.1184C116.401 41.4791 115.648 41.434 114.761 40.9832C110.063 38.5488 105.209 36.6771 100.199 35.368C95.1889 34.0588 90.0706 33.4061 84.8442 33.4097C79.7029 33.4097 74.6502 34.0191 69.6862 35.2381C64.7222 36.4571 59.9798 38.3721 55.459 40.9832ZM71.1488 134.029C65.9189 128.439 61.9069 122.736 59.1128 116.919C56.3188 111.101 54.9235 104.228 54.9271 96.297C54.9271 88.0923 57.8523 81.1716 63.7028 75.5347C69.5532 69.8978 76.6004 67.0812 84.8442 67.0848C93.088 67.0848 100.18 69.9032 106.119 75.5401C112.058 81.177 115.027 88.0959 115.027 96.297C115.027 97.1084 114.783 97.763 114.293 98.2607C113.804 98.7584 113.162 99.0054 112.368 99.0018C111.659 99.0018 111.038 98.7529 110.506 98.2553C109.975 97.7576 109.709 97.1048 109.709 96.297C109.709 89.5349 107.248 83.8764 102.326 79.3214C97.405 74.7665 91.5776 72.4909 84.8442 72.4945C78.1073 72.4945 72.3225 74.7719 67.4896 79.3269C62.6568 83.8818 60.2421 89.5385 60.2457 96.297C60.2457 103.6 61.4867 109.799 63.9687 114.895C66.4507 119.991 70.0851 125.107 74.8718 130.243C75.4037 130.784 75.6696 131.415 75.6696 132.136C75.6696 132.857 75.4037 133.488 74.8718 134.029C74.34 134.57 73.7195 134.841 73.0103 134.841C72.3012 134.841 71.6807 134.57 71.1488 134.029ZM111.304 124.833C103.415 124.833 96.5664 122.128 90.7585 116.718C84.9506 111.309 82.0484 104.502 82.052 96.297C82.052 95.5757 82.2966 94.9445 82.7859 94.4036C83.2752 93.8626 83.917 93.5921 84.7113 93.5921C85.509 93.5921 86.1526 93.8626 86.6419 94.4036C87.1312 94.9445 87.3741 95.5757 87.3706 96.297C87.3706 103.059 89.7639 108.604 94.5507 112.932C99.3374 117.259 104.922 119.423 111.304 119.423C111.836 119.423 112.59 119.378 113.565 119.288C114.54 119.198 115.559 119.063 116.623 118.882C117.421 118.702 118.109 118.816 118.686 119.223C119.264 119.631 119.64 120.238 119.814 121.046C119.991 121.767 119.858 122.399 119.415 122.94C118.972 123.481 118.396 123.841 117.687 124.021C116.091 124.472 114.696 124.721 113.501 124.768C112.306 124.815 111.574 124.837 111.304 124.833Z" fill="white"/>
</g>
<defs>
<filter id="filter0_d_5783_1317" x="8.48438" y="39.9248" width="139.626" height="96.7734" filterUnits="userSpaceOnUse" color-interpolation-filters="sRGB">
<feFlood flood-opacity="0" result="BackgroundImageFix"/>
<feColorMatrix in="SourceAlpha" type="matrix" values="0 0 0 0 0 0 0 0 0 0 0 0 0 0 0 0 0 0 127 0" result="hardAlpha"/>
<feOffset dy="4"/>
<feGaussianBlur stdDeviation="2"/>
<feComposite in2="hardAlpha" operator="out"/>
<feColorMatrix type="matrix" values="0 0 0 0 0 0 0 0 0 0 0 0 0 0 0 0 0 0 0.25 0"/>
<feBlend mode="normal" in2="BackgroundImageFix" result="effect1_dropShadow_5783_1317"/>
<feBlend mode="normal" in="SourceGraphic" in2="effect1_dropShadow_5783_1317" result="shape"/>
</filter>
<filter id="filter1_d_5783_1317" x="0.354492" y="44.752" width="164.864" height="99.6255" filterUnits="userSpaceOnUse" color-interpolation-filters="sRGB">
<feFlood flood-opacity="0" result="BackgroundImageFix"/>
<feColorMatrix in="SourceAlpha" type="matrix" values="0 0 0 0 0 0 0 0 0 0 0 0 0 0 0 0 0 0 127 0" result="hardAlpha"/>
<feOffset dy="4"/>
<feGaussianBlur stdDeviation="2"/>
<feComposite in2="hardAlpha" operator="out"/>
<feColorMatrix type="matrix" values="0 0 0 0 0 0 0 0 0 0 0 0 0 0 0 0 0 0 0.25 0"/>
<feBlend mode="normal" in2="BackgroundImageFix" result="effect1_dropShadow_5783_1317"/>
<feBlend mode="normal" in="SourceGraphic" in2="effect1_dropShadow_5783_1317" result="shape"/>
</filter>
<filter id="filter2_d_5783_1317" x="8.4834" y="39.9248" width="139.626" height="96.7734" filterUnits="userSpaceOnUse" color-interpolation-filters="sRGB">
<feFlood flood-opacity="0" result="BackgroundImageFix"/>
<feColorMatrix in="SourceAlpha" type="matrix" values="0 0 0 0 0 0 0 0 0 0 0 0 0 0 0 0 0 0 127 0" result="hardAlpha"/>
<feOffset dy="4"/>
<feGaussianBlur stdDeviation="2"/>
<feComposite in2="hardAlpha" operator="out"/>
<feColorMatrix type="matrix" values="0 0 0 0 0 0 0 0 0 0 0 0 0 0 0 0 0 0 0.25 0"/>
<feBlend mode="normal" in2="BackgroundImageFix" result="effect1_dropShadow_5783_1317"/>
<feBlend mode="normal" in="SourceGraphic" in2="effect1_dropShadow_5783_1317" result="shape"/>
</filter>
<filter id="filter3_d_5783_1317" x="8.48438" y="39.9248" width="139.626" height="96.7734" filterUnits="userSpaceOnUse" color-interpolation-filters="sRGB">
<feFlood flood-opacity="0" result="BackgroundImageFix"/>
<feColorMatrix in="SourceAlpha" type="matrix" values="0 0 0 0 0 0 0 0 0 0 0 0 0 0 0 0 0 0 127 0" result="hardAlpha"/>
<feOffset dy="4"/>
<feGaussianBlur stdDeviation="2"/>
<feComposite in2="hardAlpha" operator="out"/>
<feColorMatrix type="matrix" values="0 0 0 0 0 0 0 0 0 0 0 0 0 0 0 0 0 0 0.25 0"/>
<feBlend mode="normal" in2="BackgroundImageFix" result="effect1_dropShadow_5783_1317"/>
<feBlend mode="normal" in="SourceGraphic" in2="effect1_dropShadow_5783_1317" result="shape"/>
</filter>
<filter id="filter4_d_5783_1317" x="0.354492" y="44.752" width="164.864" height="99.6255" filterUnits="userSpaceOnUse" color-interpolation-filters="sRGB">
<feFlood flood-opacity="0" result="BackgroundImageFix"/>
<feColorMatrix in="SourceAlpha" type="matrix" values="0 0 0 0 0 0 0 0 0 0 0 0 0 0 0 0 0 0 127 0" result="hardAlpha"/>
<feOffset dy="4"/>
<feGaussianBlur stdDeviation="2"/>
<feComposite in2="hardAlpha" operator="out"/>
<feColorMatrix type="matrix" values="0 0 0 0 0 0 0 0 0 0 0 0 0 0 0 0 0 0 0.25 0"/>
<feBlend mode="normal" in2="BackgroundImageFix" result="effect1_dropShadow_5783_1317"/>
<feBlend mode="normal" in="SourceGraphic" in2="effect1_dropShadow_5783_1317" result="shape"/>
</filter>
<filter id="filter5_d_5783_1317" x="8.4834" y="39.9248" width="139.626" height="96.7734" filterUnits="userSpaceOnUse" color-interpolation-filters="sRGB">
<feFlood flood-opacity="0" result="BackgroundImageFix"/>
<feColorMatrix in="SourceAlpha" type="matrix" values="0 0 0 0 0 0 0 0 0 0 0 0 0 0 0 0 0 0 127 0" result="hardAlpha"/>
<feOffset dy="4"/>
<feGaussianBlur stdDeviation="2"/>
<feComposite in2="hardAlpha" operator="out"/>
<feColorMatrix type="matrix" values="0 0 0 0 0 0 0 0 0 0 0 0 0 0 0 0 0 0 0.25 0"/>
<feBlend mode="normal" in2="BackgroundImageFix" result="effect1_dropShadow_5783_1317"/>
<feBlend mode="normal" in="SourceGraphic" in2="effect1_dropShadow_5783_1317" result="shape"/>
</filter>
<clipPath id="clip0_5783_1317">
<rect width="139" height="139" fill="white" transform="translate(15 6)"/>
</clipPath>
</defs>
</svg>
