<svg width="44" height="44" viewBox="0 0 44 44" fill="none" xmlns="http://www.w3.org/2000/svg">
<circle cx="22" cy="22" r="22" fill="#282020"/>
<path d="M7.06996 17.7496C6.87212 17.5993 6.75172 17.4111 6.70876 17.1851C6.6658 16.9591 6.72967 16.7265 6.90038 16.4873C8.65269 13.9327 10.8504 11.9492 13.4936 10.5367C16.1368 9.12415 18.9557 8.41789 21.9505 8.41789C24.9464 8.41789 27.7727 9.10191 30.4294 10.47C33.0861 11.838 35.3048 13.8137 37.0854 16.3971C37.2832 16.6676 37.3471 16.9081 37.277 17.1184C37.2069 17.3288 37.0865 17.5091 36.9158 17.6594C36.7462 17.8097 36.5484 17.8776 36.3223 17.8632C36.0962 17.8487 35.8983 17.7207 35.7287 17.4791C34.1743 15.1349 32.1749 13.3395 29.7307 12.0929C27.2866 10.8462 24.6931 10.2223 21.9505 10.2211C19.209 10.2211 16.637 10.845 14.2347 12.0929C11.8323 13.3407 9.83974 15.1361 8.25701 17.4791C8.08743 17.7496 7.88959 17.8998 7.66348 17.9299C7.43738 17.9599 7.23954 17.8998 7.06996 17.7496ZM26.7411 39.9742C23.8017 39.1928 21.3993 37.6373 19.534 35.3075C17.6686 32.9777 16.7359 30.1305 16.7359 26.7657C16.7359 25.263 17.2447 24.0007 18.2621 22.9789C19.2796 21.9571 20.5091 21.4462 21.9505 21.4462C23.3919 21.4462 24.6213 21.9571 25.6388 22.9789C26.6563 24.0007 27.165 25.263 27.165 26.7657C27.165 27.7574 27.5183 28.5917 28.2249 29.2685C28.9315 29.9453 29.7652 30.2831 30.7262 30.2819C31.6871 30.2819 32.5067 29.9435 33.1851 29.2667C33.8634 28.5899 34.2025 27.7562 34.2025 26.7657C34.2025 23.2794 33.0013 20.3492 30.599 17.975C28.1966 15.6007 25.3279 14.4136 21.9929 14.4136C18.6578 14.4136 15.7891 15.6007 13.3868 17.975C10.9844 20.3492 9.78322 23.2644 9.78322 26.7206C9.78322 27.4419 9.84709 28.3435 9.97484 29.4254C10.1026 30.5073 10.4061 31.7696 10.8855 33.2122C10.9703 33.4827 10.9635 33.7231 10.8651 33.9335C10.7668 34.1438 10.604 34.2941 10.3767 34.3843C10.1506 34.4744 9.93131 34.4666 9.71878 34.3608C9.50624 34.255 9.35814 34.0825 9.27448 33.8433C8.85053 32.6712 8.54699 31.5063 8.36384 30.3487C8.1807 29.191 8.08856 27.9967 8.08743 26.7657C8.08743 22.7685 9.45141 19.4175 12.1794 16.7127C14.9073 14.0079 18.1644 12.6555 21.9505 12.6555C25.766 12.6555 29.0445 14.0079 31.786 16.7127C34.5276 19.4175 35.8983 22.7685 35.8983 26.7657C35.8983 28.2683 35.3969 29.5228 34.3942 30.529C33.3914 31.5352 32.1687 32.0389 30.7262 32.0401C29.2848 32.0401 28.048 31.5364 27.0158 30.529C25.9836 29.5216 25.4681 28.2671 25.4692 26.7657C25.4692 25.7739 25.1233 24.9396 24.4314 24.2628C23.7395 23.586 22.9126 23.2482 21.9505 23.2494C20.9895 23.2494 20.1626 23.5878 19.4695 24.2646C18.7765 24.9414 18.4306 25.7751 18.4317 26.7657C18.4317 29.6809 19.2446 32.1152 20.8703 34.0687C22.496 36.0222 24.5942 37.3896 27.165 38.171C27.4194 38.2612 27.589 38.4115 27.6738 38.6218C27.7585 38.8322 27.7727 39.0576 27.7162 39.298C27.6596 39.5084 27.5466 39.6887 27.377 39.839C27.2074 39.9893 26.9954 40.0344 26.7411 39.9742ZM12.5813 8.32773C12.3552 8.478 12.1291 8.51586 11.9029 8.44133C11.6768 8.3668 11.5073 8.20872 11.3942 7.96708C11.2812 7.72665 11.2529 7.50907 11.3094 7.31432C11.3659 7.11957 11.5073 6.94646 11.7334 6.79499C13.3161 5.89338 14.9695 5.20215 16.6935 4.72129C18.4176 4.24043 20.1699 4 21.9505 4C23.7593 4 25.5258 4.23322 27.2498 4.69965C28.9739 5.16608 30.6414 5.83448 32.2524 6.70483C32.5067 6.8551 32.6554 7.03542 32.6984 7.2458C32.7413 7.45617 32.7199 7.66655 32.6339 7.87692C32.5491 8.0873 32.4078 8.25259 32.21 8.37281C32.0121 8.49302 31.7719 8.478 31.4893 8.32773C29.9913 7.51628 28.4436 6.89237 26.8462 6.45599C25.2488 6.01961 23.6169 5.80202 21.9505 5.80322C20.3112 5.80322 18.7002 6.00638 17.1175 6.41271C15.5348 6.81903 14.0227 7.45737 12.5813 8.32773ZM17.5838 39.3431C15.9163 37.4798 14.6371 35.5786 13.7463 33.6395C12.8554 31.7005 12.4106 29.4092 12.4117 26.7657C12.4117 24.0308 13.3444 21.7239 15.2097 19.8449C17.0751 17.9659 19.322 17.0271 21.9505 17.0283C24.5789 17.0283 26.84 17.9677 28.7336 19.8467C30.6272 21.7257 31.5741 24.032 31.5741 26.7657C31.5741 27.0361 31.4961 27.2543 31.34 27.4202C31.184 27.5861 30.9794 27.6685 30.7262 27.6673C30.5001 27.6673 30.3022 27.5843 30.1326 27.4184C29.9631 27.2525 29.8783 27.0349 29.8783 26.7657C29.8783 24.5116 29.0937 22.6255 27.5245 21.1071C25.9554 19.5888 24.0973 18.8303 21.9505 18.8315C19.8025 18.8315 17.958 19.5906 16.4171 21.109C14.8762 22.6273 14.1063 24.5128 14.1075 26.7657C14.1075 29.2 14.5032 31.2665 15.2945 32.9651C16.0859 34.6638 17.2447 36.369 18.7709 38.0809C18.9405 38.2612 19.0252 38.4716 19.0252 38.712C19.0252 38.9524 18.9405 39.1628 18.7709 39.3431C18.6013 39.5234 18.4035 39.6136 18.1774 39.6136C17.9513 39.6136 17.7534 39.5234 17.5838 39.3431ZM30.387 36.2776C27.8716 36.2776 25.688 35.376 23.8362 33.5728C21.9844 31.7696 21.0591 29.5005 21.0602 26.7657C21.0602 26.5252 21.1382 26.3148 21.2942 26.1345C21.4502 25.9542 21.6548 25.864 21.9081 25.864C22.1625 25.864 22.3676 25.9542 22.5237 26.1345C22.6797 26.3148 22.7571 26.5252 22.756 26.7657C22.756 29.0197 23.5191 30.868 25.0453 32.3106C26.5715 33.7531 28.3521 34.4744 30.387 34.4744C30.5566 34.4744 30.7968 34.4594 31.1077 34.4293C31.4186 34.3993 31.7436 34.3542 32.0828 34.2941C32.3372 34.234 32.5565 34.2719 32.7408 34.4077C32.925 34.5435 33.0449 34.7461 33.1003 35.0154C33.1568 35.2558 33.1144 35.4662 32.9731 35.6465C32.8318 35.8268 32.6481 35.9471 32.422 36.0072C31.9132 36.1574 31.4684 36.2404 31.0874 36.256C30.7064 36.2716 30.4729 36.2788 30.387 36.2776Z" fill="white"/>
</svg>
